<svg id="Layer_1" data-name="Layer 1" xmlns="http://www.w3.org/2000/svg" viewBox="0 0 96 96"><path d="M89.28,85.77a.74.74,0,0,1-.64-.36L65,46.37a3.13,3.13,0,0,0-5.34,0L45.52,69.67a.75.75,0,0,1-1.28-.78l14.13-23.3a4.62,4.62,0,0,1,7.9,0l23.65,39a.76.76,0,0,1-.25,1A.82.82,0,0,1,89.28,85.77Z"/><path d="M67.58,69.77a3,3,0,0,1-.42,0,2.43,2.43,0,0,1-2-1.77A6.27,6.27,0,0,1,65,66.71a3.2,3.2,0,0,0-.23-1.22l-.07-.13c-.11.11-.25.28-.34.39a2.75,2.75,0,0,1-1.28,1.06,2.85,2.85,0,0,1-3.17-1.54,7.49,7.49,0,0,1-.72-2.78l0-.2a4.24,4.24,0,0,0-.72-2.21.83.83,0,0,0-.77-.28,1.18,1.18,0,0,0-.88.65c-.79,1.66-2,2.43-3.22,2.1S52,61.1,51.69,60.1A4.63,4.63,0,0,0,51,58.67a.75.75,0,0,1,.09-1.06.74.74,0,0,1,1,.09,5.55,5.55,0,0,1,.93,1.93c.27.82.48,1.37.85,1.47.68.19,1.28-.84,1.49-1.3a2.68,2.68,0,0,1,2-1.49,2.29,2.29,0,0,1,2.08.77,5.52,5.52,0,0,1,1.1,3l0,.21a6.09,6.09,0,0,0,.54,2.23,1.45,1.45,0,0,0,1.45.83,2.92,2.92,0,0,0,.52-.56c.41-.51.93-1.13,1.67-1.06a1.75,1.75,0,0,1,1.25,1.06,4.64,4.64,0,0,1,.39,1.8,4.58,4.58,0,0,0,.12,1,1,1,0,0,0,.77.69,1,1,0,0,0,1-.43l.07-.12.24-.34c1.21-1.69,3.15-1.64,4.86-1.61a11.68,11.68,0,0,0,2.3-.1,3,3,0,0,0,1.28-.53A.75.75,0,0,1,78,66.36a4.54,4.54,0,0,1-1.9.78,14.06,14.06,0,0,1-2.58.12c-1.77,0-2.9,0-3.62,1l-.2.3-.08.12A2.51,2.51,0,0,1,67.58,69.77Zm-3-4.57Z"/><path d="M6.72,85.77a.82.82,0,0,1-.39-.11.76.76,0,0,1-.25-1L27,50.1a4.14,4.14,0,0,1,3.57-2h0a4.15,4.15,0,0,1,3.57,2L55.05,84.63a.74.74,0,0,1-.25,1,.76.76,0,0,1-1-.25L32.85,50.88a2.63,2.63,0,0,0-2.28-1.29,2.66,2.66,0,0,0-2.29,1.29L7.36,85.41A.74.74,0,0,1,6.72,85.77Z"/><path d="M35.25,71.5a2.31,2.31,0,0,1-.52-.06,2.24,2.24,0,0,1-1.79-1.87c0-.24-.06-.49-.08-.74a3.18,3.18,0,0,0-.19-1h0l-.21.26a2.6,2.6,0,0,1-1.18,1,2.63,2.63,0,0,1-2.9-1.41,6.72,6.72,0,0,1-.65-2.49l0-.18A3.74,3.74,0,0,0,27.07,63a.61.61,0,0,0-.59-.21.92.92,0,0,0-.71.53c-.73,1.51-1.81,2.2-3,1.9s-1.52-1.47-1.83-2.4a5.24,5.24,0,0,0-.48-1.15.75.75,0,1,1,1.24-.85,6.15,6.15,0,0,1,.66,1.53c.22.65.44,1.32.8,1.42.54.14,1-.72,1.21-1.1a2.46,2.46,0,0,1,1.86-1.37,2.13,2.13,0,0,1,1.92.7,5,5,0,0,1,1,2.73l0,.18a5.37,5.37,0,0,0,.47,1.94c.24.44.76.82,1.18.7a3,3,0,0,0,.42-.47c.38-.47.85-1,1.56-1a1.64,1.64,0,0,1,1.17,1,4.31,4.31,0,0,1,.35,1.63,4.07,4.07,0,0,0,.06.6.77.77,0,0,0,.63.65.89.89,0,0,0,.94-.37l.17-.25c1.1-1.53,2.84-1.5,4.38-1.46a11.26,11.26,0,0,0,2-.09,2.63,2.63,0,0,0,1.09-.45.75.75,0,1,1,.87,1.22,4,4,0,0,1-1.71.71,11.92,11.92,0,0,1-2.3.1c-1.54,0-2.52,0-3.13.84l-.15.22A2.37,2.37,0,0,1,35.25,71.5Z"/><path d="M93,85.77H3a.75.75,0,0,1,0-1.5H93a.75.75,0,0,1,0,1.5Z"/><path d="M50.54,39.49H21.2a2.12,2.12,0,0,1-2-1.4,2.54,2.54,0,0,1,.74-2.78,8.17,8.17,0,0,1,4.16-1.5,5.41,5.41,0,0,1,3.48-4.47,4.14,4.14,0,0,1,.64-.18,8.51,8.51,0,0,1,8.14-3.9,9.1,9.1,0,0,1,7.06,5.88A8.43,8.43,0,0,1,46,31.3a10.4,10.4,0,0,1,6.5,4.8,2.18,2.18,0,0,1,0,2.22A2.3,2.3,0,0,1,50.54,39.49ZM35.33,26.7a6.9,6.9,0,0,0-6,3.49.76.76,0,0,1-.58.4,2.52,2.52,0,0,0-.68.16,3.92,3.92,0,0,0-2.53,3.72.71.71,0,0,1-.2.54.69.69,0,0,1-.52.24,7.59,7.59,0,0,0-3.92,1.19,1.05,1.05,0,0,0-.33,1.13.65.65,0,0,0,.65.42H50.54a.78.78,0,0,0,.68-.4.68.68,0,0,0,0-.7,8.88,8.88,0,0,0-5.54-4.13,7,7,0,0,0-2.71,0,.76.76,0,0,1-.86-.57,7.54,7.54,0,0,0-6-5.39A7.31,7.31,0,0,0,35.33,26.7Z"/><path d="M39.72,36.4h-.08a.75.75,0,0,1-.66-.83,4.87,4.87,0,0,1,3.68-4.33A.75.75,0,0,1,43,32.7a3.4,3.4,0,0,0-2.53,3A.76.76,0,0,1,39.72,36.4Z"/><path d="M26.71,36.8a.75.75,0,0,1-.7-.46,2.13,2.13,0,0,0-1.45-1.12A.75.75,0,1,1,25,33.79a3.59,3.59,0,0,1,2.4,2,.75.75,0,0,1-.41,1A.69.69,0,0,1,26.71,36.8Z"/><path d="M75,22.93H49.27a2,2,0,0,1-1.88-1.29,2.33,2.33,0,0,1,.68-2.53,7.11,7.11,0,0,1,3.62-1.33,4.79,4.79,0,0,1,3.1-3.91,2.37,2.37,0,0,1,.53-.16,7.56,7.56,0,0,1,7.2-3.42,8.06,8.06,0,0,1,6.23,5.14,7.58,7.58,0,0,1,2.24.14,9.22,9.22,0,0,1,5.76,4.25,2,2,0,0,1,0,2A2.09,2.09,0,0,1,75,22.93ZM61.64,11.73a6,6,0,0,0-5.18,3,.76.76,0,0,1-.58.4,2.18,2.18,0,0,0-.57.13,3.35,3.35,0,0,0-2.16,3.17.74.74,0,0,1-.72.78,6.6,6.6,0,0,0-3.37,1,.81.81,0,0,0-.26.88.46.46,0,0,0,.47.31H75a.57.57,0,0,0,.51-.3.5.5,0,0,0,0-.52A7.67,7.67,0,0,0,70.67,17,6.07,6.07,0,0,0,68.34,17a.74.74,0,0,1-.86-.57,6.52,6.52,0,0,0-5.15-4.65C62.1,11.75,61.87,11.73,61.64,11.73Z"/><path d="M82.48,41a.76.76,0,0,1-.75-.75v-7a.75.75,0,0,1,1.5,0v7A.76.76,0,0,1,82.48,41Z"/><path d="M82.48,36.28a.79.79,0,0,1-.53-.22l-1.59-1.59a.75.75,0,0,1,1.06-1.06l1.06,1.06,1-1.06a.75.75,0,0,1,1.06,0,.74.74,0,0,1,0,1.06L83,36.06A.79.79,0,0,1,82.48,36.28Z"/><path d="M82.48,47.57a.76.76,0,0,1-.75-.75v-7a.75.75,0,0,1,1.5,0v7A.76.76,0,0,1,82.48,47.57Z"/><path d="M84.06,46.86a.74.74,0,0,1-.53-.22l-1-1.06-1.06,1.06a.75.75,0,0,1-1.06-1.06L82,44A.75.75,0,0,1,83,44l1.58,1.59a.74.74,0,0,1,0,1.06A.71.71,0,0,1,84.06,46.86Z"/><path d="M82.64,40.9a.86.86,0,0,1-.38-.1L76.2,37.29A.75.75,0,1,1,77,36L83,39.5a.75.75,0,0,1-.37,1.4Z"/><path d="M76.39,39.12a.75.75,0,0,1-.19-1.47l1.44-.39-.39-1.44a.76.76,0,0,1,.53-.92.75.75,0,0,1,.92.53l.58,2.17a.75.75,0,0,1-.53.92l-2.16.58Z"/><path d="M88.33,44.19a.86.86,0,0,1-.37-.1L81.9,40.58a.74.74,0,0,1-.28-1,.75.75,0,0,1,1-.27l6.06,3.5a.75.75,0,0,1-.38,1.4Z"/><path d="M86.93,45.21a.77.77,0,0,1-.73-.56l-.58-2.17a.74.74,0,0,1,.53-.91L88.32,41a.75.75,0,0,1,.92.53.74.74,0,0,1-.53.91l-1.44.39.38,1.44a.75.75,0,0,1-.53.92A.63.63,0,0,1,86.93,45.21Z"/><path d="M76.57,44.22a.75.75,0,0,1-.37-1.4l6.06-3.5a.75.75,0,0,1,1,.27.76.76,0,0,1-.28,1L77,44.12A.75.75,0,0,1,76.57,44.22Z"/><path d="M78,45.24a.69.69,0,0,1-.2,0,.76.76,0,0,1-.53-.92l.39-1.44-1.44-.39a.74.74,0,0,1-.53-.91.75.75,0,0,1,.92-.53l2.16.58a.74.74,0,0,1,.53.91l-.58,2.17A.74.74,0,0,1,78,45.24Z"/><path d="M82.27,40.93a.76.76,0,0,1-.65-.38.74.74,0,0,1,.28-1L88,36a.74.74,0,0,1,1,.27.75.75,0,0,1-.27,1l-6.06,3.5A.75.75,0,0,1,82.27,40.93Z"/><path d="M88.51,39.15l-.19,0-2.17-.58a.76.76,0,0,1-.53-.92l.58-2.17a.76.76,0,0,1,.92-.53.75.75,0,0,1,.53.92l-.38,1.44,1.44.39a.75.75,0,0,1-.2,1.47Z"/></svg>