<?xml version="1.0" ?><svg xmlns="http://www.w3.org/2000/svg" xmlns:xlink="http://www.w3.org/1999/xlink" version="1.1" viewBox="0 0 64 64" style="enable-background:new 0 0 64 64;" xml:space="preserve"><g id="canned_drink"/><g id="canned_food"/><g id="loaction"/><g id="grilled_chicken"/><g id="car"/><g id="backpack"/><g id="picnic_table"/><g id="picnic_basket"/><g id="sand_beach"/><g id="bonfire"/><g id="tent"/><g id="portable_grill"/><g id="portable_stove"/><g id="signpost"/><g id="park"/><g id="hammock"><path d="M60.4,17c-4.3-2.2-8.1-2.6-11.1-1.3c-0.1,0.1-0.2,0.1-0.3,0.2L49.3,8c0-0.4-0.2-0.8-0.5-0.9S48,7,47.7,7.2   c-5,4.1-5.9,7.9-5.6,10.7c-2.8-0.3-6.4,0.6-10.1,5.3c-3.7-4.7-7.3-5.6-10.1-5.3c0.4-2.8-0.6-6.6-5.6-10.7C16,7,15.6,6.9,15.2,7.1   c-0.4,0.2-0.6,0.5-0.5,0.9l0.4,7.9c-0.1-0.1-0.2-0.1-0.3-0.2c-3.1-1.3-6.8-0.9-11.1,1.3C3.2,17.2,3,17.6,3,17.9   c0,0.4,0.3,0.7,0.6,0.9l10.7,4.4C4.1,33.2,4,55,4,56c0,0.6,0.4,1,1,1h8c0.5,0,1-0.4,1-1c0.1-3.6,0.3-6.9,0.6-9.8l6.1,1.7   c0,0,0,0,0.1,0c1.7,2.7,6.2,6,11.2,6s9.5-3.3,11.2-6c0,0,0,0,0.1,0l6.1-1.7c0.3,3,0.5,6.2,0.6,9.8c0,0.5,0.5,1,1,1h8   c0.6,0,1-0.4,1-1c0-1-0.1-22.8-10.3-32.8l10.7-4.4c0.4-0.1,0.6-0.5,0.6-0.9C61,17.6,60.8,17.2,60.4,17z M47.2,10.4l-0.3,6.9   c-1,0.9-1.6,1.9-2.1,2.7c-0.2-0.3-0.3-0.7-0.4-1C43.5,16.1,44.4,13.2,47.2,10.4z M53.7,33.1c-0.1,0-0.1,0-0.2,0.1l-3.6,1.9   c-0.3-1.7-0.6-3.2-1-4.6l2.6-1.8C52.3,30.1,53.1,31.6,53.7,33.1z M56.1,40.5l-5.2,0.8c-0.2-1.5-0.4-2.9-0.6-4.2   c0.1,0,0.1,0,0.2-0.1l4-2.1C55.1,36.8,55.6,38.7,56.1,40.5z M57.4,47.7h-5.8c-0.1-1.5-0.3-3-0.4-4.4l5.4-0.8   C56.9,44.3,57.1,46.1,57.4,47.7z M41.4,27.6c0.5-2.3,2.2-3.8,3.2-4.5c0.2,0.2,0.3,0.4,0.5,0.5c0,0,0,0,0,0l-2.1,10.9   C41.4,32.1,40.9,29.7,41.4,27.6z M42.7,20.1c0.2,0.5,0.4,1,0.7,1.4c-0.4,0.3-0.8,0.6-1.3,1l-7.8,1C36.9,20.6,39.8,19.4,42.7,20.1z    M31.9,25.9c0,0,0.1,0,0.1,0s0.1,0,0.1,0l8.2-1.1c-0.4,0.7-0.7,1.5-0.9,2.3c-0.7,3.2,0.4,6.8,3.3,10.6c0.2,0.3,0.5,0.4,0.8,0.4   c0.1,0,0.2,0,0.2,0c0.4-0.1,0.7-0.4,0.8-0.8l1.8-9.3c0.8,2.7,1.7,6.3,2.3,11c-0.1,0-0.1,0.1-0.2,0.1l-5.8,4.9c-1-0.2-2.3,0-4.2,0.2   c-1.8,0.2-4,0.5-6.3,0.5s-4.5-0.3-6.3-0.5c-1.9-0.3-3.3-0.4-4.2-0.2l-5.8-4.9c-0.1,0-0.1-0.1-0.2-0.1c0.7-4.7,1.5-8.3,2.3-11   l1.8,9.3c0.1,0.4,0.4,0.7,0.8,0.8c0.1,0,0.2,0,0.2,0c0.3,0,0.6-0.1,0.8-0.4c2.9-3.8,4-7.4,3.3-10.6c-0.2-0.9-0.5-1.7-0.9-2.3   L31.9,25.9z M7.5,42.5l5.4,0.8c-0.2,1.4-0.3,2.9-0.4,4.4H6.6C6.8,46.1,7.1,44.3,7.5,42.5z M9.6,35l4,2.1c0.1,0,0.1,0.1,0.2,0.1   c-0.2,1.3-0.4,2.7-0.6,4.2l-5.2-0.8C8.4,38.7,8.9,36.8,9.6,35z M12.5,28.7l2.6,1.8c-0.3,1.4-0.7,2.9-1,4.6l-3.6-1.9   c-0.1,0-0.1,0-0.2-0.1C10.9,31.6,11.7,30.1,12.5,28.7z M22.6,27.6c0.5,2.1-0.1,4.4-1.6,7L19,23.7c0,0,0,0,0,0   c0.1-0.1,0.3-0.3,0.5-0.5C20.4,23.8,22.1,25.3,22.6,27.6z M29.7,23.6l-7.8-1c-0.5-0.4-0.9-0.8-1.3-1c0.3-0.4,0.5-0.9,0.7-1.4   C24.2,19.4,27.1,20.6,29.7,23.6z M16.8,10.4c2.8,2.9,3.8,5.7,2.9,8.6c-0.1,0.4-0.3,0.7-0.4,1c-0.4-0.8-1.1-1.8-2.1-2.7L16.8,10.4z    M13.9,17.6c2.6,1.1,3.7,3.6,4,4.3c-0.2,0.2-0.3,0.3-0.4,0.4L6.6,17.9C9.4,16.8,11.9,16.7,13.9,17.6z M17,24.3   c-0.4,1.1-0.9,2.5-1.4,4.1l-2-1.4c0.8-1.1,1.7-2.1,2.7-3L17,24.3z M6,55c0-1.1,0.1-3,0.4-5.3h5.9c-0.1,1.7-0.2,3.4-0.3,5.3H6z    M15,42.6C15,42.6,15,42.6,15,42.6C15,42.6,15,42.6,15,42.6c0-0.4,0.1-0.8,0.1-1.2l4.9,4.1c0,0.1,0,0.1,0,0.2l-5.2-1.5   C14.9,43.6,14.9,43.1,15,42.6z M32,52c-5.4,0-9.7-4.5-10-6c0.6-0.1,2.1,0.1,3.4,0.3c1.8,0.3,4.1,0.6,6.6,0.6s4.7-0.3,6.6-0.6   c1.3-0.2,2.8-0.4,3.4-0.3C41.7,47.5,37.4,52,32,52z M42,45.9l0.5,0c0,0,0,0,0,0L42,45.9C42,45.9,42,45.9,42,45.9z M44,45.7   c0-0.1,0-0.1,0-0.2l4.9-4.1c0,0.4,0.1,0.8,0.1,1.2c0,0,0,0,0,0c0,0,0,0,0,0c0.1,0.5,0.1,1.1,0.2,1.6L44,45.7z M52,55   c-0.1-1.9-0.2-3.6-0.3-5.3h5.9c0.2,2.3,0.3,4.2,0.4,5.3H52z M50.4,27l-2,1.4c-0.5-1.6-0.9-3-1.4-4.1l0.6-0.3   C48.7,24.9,49.6,25.9,50.4,27z M46.5,22.4c-0.1-0.1-0.2-0.2-0.4-0.4c0.3-0.8,1.4-3.2,4-4.3c2-0.9,4.5-0.8,7.3,0.3L46.5,22.4z"/></g><g id="forest"/><g id="hill"/><g id="beach"/><g id="camping"/></svg>